<svg width="100" height="28" viewBox="0 0 100 28" fill="none" xmlns="http://www.w3.org/2000/svg">
<path fill-rule="evenodd" clip-rule="evenodd" d="M8.28623 2.46887C11.3449 3.55225 15.8342 5.14237 18.9703 7.297C19.7901 7.86023 20.561 8.35658 21.2694 8.81267C24.0033 10.5729 25.8058 11.7333 25.8891 13.8234C25.9939 16.455 16.4543 22.2446 14.1481 23.0868C13.3075 23.3936 12.1965 23.8822 11.0541 24.3847C9.06194 25.2609 6.97448 26.179 6.05989 26.2484C4.44363 26.3711 1.88285 25.4025 1.46352 23.6131C1.04421 21.8236 1.04421 20.6656 2.61667 19.0866C3.01786 18.6838 3.39176 18.37 3.72618 18.0893C4.70249 17.2701 5.34227 16.7332 5.34227 15.0866C5.34227 13.1271 3.94191 11.3329 3.18575 10.3641C3.08888 10.2401 3.00259 10.1295 2.93116 10.0339C2.30218 9.19177 0.834537 7.19174 1.46352 5.92856C2.09251 4.66539 3.35049 2.66536 4.71328 2.24429C5.31084 2.05968 5.73624 1.99311 6.02746 1.94753C6.26757 1.90997 6.41646 1.88667 6.49541 1.82324C7.0021 2.01404 7.6091 2.22904 8.28623 2.46887ZM11.933 16.358C13.3585 15.8999 15.5253 15.2036 15.7207 13.9287C15.8967 12.7796 14.4627 11.4024 10.7935 10.1392C7.8583 9.12866 6.98471 9.22692 6.91482 9.40236L9.95489 16.4551H11.6322C11.7278 16.4239 11.8284 16.3916 11.933 16.358Z" fill="currentColor"/>
<g style="mix-blend-mode:screen">
<path fill-rule="evenodd" clip-rule="evenodd" d="M8.28623 2.46887C11.3449 3.55225 15.8342 5.14237 18.9703 7.297C19.7901 7.86023 20.561 8.35658 21.2694 8.81267C24.0033 10.5729 25.8058 11.7333 25.8891 13.8234C25.9939 16.455 16.4543 22.2446 14.1481 23.0868C13.3075 23.3936 12.1965 23.8822 11.0541 24.3847C9.06194 25.2609 6.97448 26.179 6.05989 26.2484C4.44363 26.3711 1.88285 25.4025 1.46352 23.6131C1.04421 21.8236 1.04421 20.6656 2.61667 19.0866C3.01786 18.6838 3.39176 18.37 3.72618 18.0893C4.70249 17.2701 5.34227 16.7332 5.34227 15.0866C5.34227 13.1271 3.94191 11.3329 3.18575 10.3641C3.08888 10.2401 3.00259 10.1295 2.93116 10.0339C2.30218 9.19177 0.834537 7.19174 1.46352 5.92856C2.09251 4.66539 3.35049 2.66536 4.71328 2.24429C5.31084 2.05968 5.73624 1.99311 6.02746 1.94753C6.26757 1.90997 6.41646 1.88667 6.49541 1.82324C7.0021 2.01404 7.6091 2.22904 8.28623 2.46887ZM11.933 16.358C13.3585 15.8999 15.5253 15.2036 15.7207 13.9287C15.8967 12.7796 14.4627 11.4024 10.7935 10.1392C7.8583 9.12866 6.98471 9.22692 6.91482 9.40236L9.95489 16.4551H11.6322C11.7278 16.4239 11.8284 16.3916 11.933 16.358Z" fill="currentColor"/>
</g>
<g style="mix-blend-mode:lighten">
<path fill-rule="evenodd" clip-rule="evenodd" d="M8.28623 2.46887C11.3449 3.55225 15.8342 5.14237 18.9703 7.297C19.7901 7.86023 20.561 8.35658 21.2694 8.81267C24.0033 10.5729 25.8058 11.7333 25.8891 13.8234C25.9939 16.455 16.4543 22.2446 14.1481 23.0868C13.3075 23.3936 12.1965 23.8822 11.0541 24.3847C9.06194 25.2609 6.97448 26.179 6.05989 26.2484C4.44363 26.3711 1.88285 25.4025 1.46352 23.6131C1.04421 21.8236 1.04421 20.6656 2.61667 19.0866C3.01786 18.6838 3.39176 18.37 3.72618 18.0893C4.70249 17.2701 5.34227 16.7332 5.34227 15.0866C5.34227 13.1271 3.94191 11.3329 3.18575 10.3641C3.08888 10.2401 3.00259 10.1295 2.93116 10.0339C2.30218 9.19177 0.834537 7.19174 1.46352 5.92856C2.09251 4.66539 3.35049 2.66536 4.71328 2.24429C5.31084 2.05968 5.73624 1.99311 6.02746 1.94753C6.26757 1.90997 6.41646 1.88667 6.49541 1.82324C7.0021 2.01404 7.6091 2.22904 8.28623 2.46887ZM11.933 16.358C13.3585 15.8999 15.5253 15.2036 15.7207 13.9287C15.8967 12.7796 14.4627 11.4024 10.7935 10.1392C7.8583 9.12866 6.98471 9.22692 6.91482 9.40236L9.95489 16.4551H11.6322C11.7278 16.4239 11.8284 16.3916 11.933 16.358Z" fill="currentColor"/>
</g>
<g style="mix-blend-mode:screen">
<path fill-rule="evenodd" clip-rule="evenodd" d="M8.28623 2.46887C11.3449 3.55225 15.8342 5.14237 18.9703 7.297C19.7901 7.86023 20.561 8.35658 21.2694 8.81267C24.0033 10.5729 25.8058 11.7333 25.8891 13.8234C25.9939 16.455 16.4543 22.2446 14.1481 23.0868C13.3075 23.3936 12.1965 23.8822 11.0541 24.3847C9.06194 25.2609 6.97448 26.179 6.05989 26.2484C4.44363 26.3711 1.88285 25.4025 1.46352 23.6131C1.04421 21.8236 1.04421 20.6656 2.61667 19.0866C3.01786 18.6838 3.39176 18.37 3.72618 18.0893C4.70249 17.2701 5.34227 16.7332 5.34227 15.0866C5.34227 13.1271 3.94191 11.3329 3.18575 10.3641C3.08888 10.2401 3.00259 10.1295 2.93116 10.0339C2.30218 9.19177 0.834537 7.19174 1.46352 5.92856C2.09251 4.66539 3.35049 2.66536 4.71328 2.24429C5.31084 2.05968 5.73624 1.99311 6.02746 1.94753C6.26757 1.90997 6.41646 1.88667 6.49541 1.82324C7.0021 2.01404 7.6091 2.22904 8.28623 2.46887ZM11.933 16.358C13.3585 15.8999 15.5253 15.2036 15.7207 13.9287C15.8967 12.7796 14.4627 11.4024 10.7935 10.1392C7.8583 9.12866 6.98471 9.22692 6.91482 9.40236L9.95489 16.4551H11.6322C11.7278 16.4239 11.8284 16.3916 11.933 16.358Z" fill="currentColor"/>
</g>
<path d="M5.72363 1.62125C8.65694 1.45463 11.7676 3.3308 13.0248 4.23335C9.67236 3.50433 8.65693 4.53551 8.65693 6.51579C8.65693 8.59858 12.2188 13.4932 12.6378 16.8256C13.0569 20.1581 12.4283 21.3037 12.0093 22.1369C11.5903 22.9699 9.28145 25.6162 7.08147 26.1369C4.88149 26.6576 2.99984 25.3652 3.20935 25.3652C3.41887 25.3652 5.40933 24.532 5.93314 24.2196C6.45695 23.9072 8.13312 22.1369 8.34265 21.0954C8.55217 20.054 8.65693 18.7002 7.50455 16.4091C6.35219 14.118 5.40934 13.2849 2.99984 10.4731C1.07224 8.22368 1.07922 5.99509 1.32366 5.16197C1.5681 4.05115 2.79031 1.78787 5.72363 1.62125Z" fill="currentColor"/>
<path fill-rule="evenodd" clip-rule="evenodd" d="M62.0346 4.11511C61.6726 4.21909 61.3259 4.50623 61.156 4.84299C61.0137 5.12495 61.0103 5.28802 61.0103 11.9414C61.0103 19.4173 60.989 19.0581 61.4469 19.2974C61.7326 19.4467 62.841 19.4508 63.1227 19.3035C63.4356 19.14 63.5171 18.9962 63.5642 18.5237L63.6077 18.0874L64.0413 18.4494C64.5828 18.9014 65.1321 19.1983 65.8391 19.4213C66.6218 19.6683 67.9738 19.6675 68.7656 19.4197C70.8198 18.7767 72.2607 17.1701 72.6839 15.0509C72.8461 14.2383 72.7963 12.9572 72.5716 12.1626C72.2395 10.9889 71.5438 9.868 70.7552 9.23637C70.184 8.77885 69.2773 8.33774 68.6193 8.19738C67.9573 8.05622 66.7431 8.09823 66.1318 8.28354C65.5111 8.47159 64.7982 8.87994 64.3085 9.32784L63.8637 9.73476L63.8621 7.45457C63.8606 5.38756 63.8477 5.14596 63.7237 4.87006C63.563 4.51244 63.2123 4.22285 62.8028 4.10986C62.4615 4.01565 62.3791 4.01617 62.0346 4.11511ZM83.9835 4.1123C83.6256 4.21901 83.2941 4.49144 83.1508 4.79655C83.04 5.03289 83.031 5.61509 83.0491 11.4376L83.069 17.8197L83.3228 18.2929C83.6337 18.8725 84.0486 19.2019 84.7415 19.4194C85.1783 19.5565 85.3584 19.5715 86.1316 19.536C86.6202 19.5136 87.1455 19.457 87.2994 19.4105C87.9347 19.218 88.4352 18.4736 88.3518 17.8452C88.2672 17.2076 87.8595 16.9412 87.1633 17.0687C86.6599 17.1609 86.2303 17.0443 86.0501 16.7662C85.9322 16.5843 85.9196 16.1294 85.8857 10.8349C85.8528 5.67315 85.8371 5.0783 85.7277 4.87863C85.5935 4.63356 85.2708 4.30959 85.0444 4.19247C84.8097 4.07103 84.261 4.02962 83.9835 4.1123ZM92.1659 4.11186C91.785 4.21975 91.3191 4.64702 91.2246 4.97543C91.1704 5.16319 91.1528 7.21032 91.168 11.534L91.1901 17.8197L91.385 18.1894C91.5803 18.5601 91.9749 18.9837 92.3322 19.2065C92.7743 19.4822 93.3358 19.5782 94.2589 19.5357C94.7435 19.5135 95.2666 19.457 95.4204 19.4105C96.056 19.218 96.556 18.4736 96.4733 17.8452C96.3868 17.1998 95.9926 16.9479 95.2579 17.0708C94.6849 17.1664 94.3156 17.0351 94.1349 16.6716C94.0166 16.4337 94.007 15.9976 94.007 10.7917V5.16881L93.8426 4.83981C93.5378 4.23158 92.8291 3.92396 92.1659 4.11186ZM37.9639 4.85061C35.5973 5.00694 33.8369 6.2972 33.4269 8.17587C33.3738 8.41879 33.3495 8.8911 33.3677 9.32208C33.4078 10.271 33.6277 10.7973 34.223 11.3701C34.979 12.0971 35.663 12.3899 38.1469 13.0499C39.8103 13.4919 40.6643 13.8508 41.015 14.2555C41.6018 14.933 41.338 15.8314 40.4337 16.2347C40.1055 16.3812 39.8988 16.4104 39.0248 16.4343C38.0745 16.4603 37.9379 16.4461 37.1344 16.2385C36.579 16.0951 35.9654 15.8676 35.4243 15.6046C34.8762 15.3382 34.487 15.1945 34.3139 15.1945C33.6937 15.1945 33.1914 15.7571 33.1914 16.4517C33.1914 17.0498 33.4291 17.3837 34.1228 17.7603C35.2621 18.3786 36.8092 18.7854 38.3273 18.8655C40.4156 18.9757 42.1371 18.4646 43.1495 17.4338C43.8633 16.7069 44.1828 15.9079 44.1828 14.8499C44.1828 13.7468 43.8625 12.9441 43.1597 12.2864C42.3966 11.5724 41.5082 11.2087 38.9766 10.5738C37.4214 10.1839 36.7962 9.94205 36.4576 9.59983C36.0041 9.1415 36.0275 8.36399 36.5107 7.83422C36.9172 7.38839 37.2874 7.27022 38.4029 7.23021C39.2025 7.20152 39.4049 7.22016 40.0126 7.3787C40.3948 7.47846 41.0248 7.71605 41.4125 7.90676C42.0701 8.2303 42.1368 8.24833 42.405 8.17535C43.1183 7.98116 43.5452 6.90484 43.1613 6.26843C42.7925 5.65702 40.6987 4.90178 39.1711 4.82909C38.8895 4.81563 38.3462 4.82532 37.9639 4.85061ZM48.0239 8.278C47.9836 8.29249 47.8655 8.32317 47.7614 8.34617C47.4639 8.41191 47.058 8.84799 46.9632 9.20391C46.854 9.61388 46.8853 9.70763 47.9518 12.1626C48.4201 13.2405 48.8977 14.3551 49.0132 14.6399C49.1288 14.9246 49.6159 16.056 50.0956 17.1542L50.9678 19.1508L50.8225 19.5574C50.5238 20.3923 50.1322 21.1516 49.8968 21.3517C49.6807 21.5355 49.6048 21.5541 49.0718 21.5541C48.5018 21.5541 48.4777 21.5614 48.236 21.8056C47.9927 22.0514 47.9873 22.0707 47.9876 22.6744C47.988 23.7435 48.292 24.0228 49.4505 24.0178C50.6206 24.0127 51.3694 23.7389 52.0986 23.0495C52.6428 22.535 52.8283 22.1719 53.6944 19.9268C54.1414 18.7678 54.8664 16.888 55.3054 15.7492C55.7444 14.6103 56.4384 12.8133 56.8477 11.7559C57.2569 10.6984 57.6201 9.7336 57.6549 9.61189C57.8074 9.07723 57.4337 8.47883 56.8478 8.31933C56.3412 8.18149 55.8591 8.33057 55.4452 8.75296C55.1443 9.05993 55.0691 9.21462 54.6862 10.3139C53.7578 12.9784 52.5777 16.2697 52.5327 16.3195C52.4886 16.3682 52.1794 15.6187 50.269 10.8315C49.8876 9.87572 49.496 8.98524 49.399 8.85272C49.302 8.72013 49.101 8.54946 48.9525 8.47337C48.6852 8.33649 48.1652 8.22711 48.0239 8.278ZM77.0978 9.23275C76.6969 9.37747 76.4075 9.61514 76.2555 9.92419C76.1276 10.1845 76.1171 10.4646 76.0979 14.1422C76.0838 16.7849 76.1029 18.1786 76.1557 18.3767C76.402 19.3008 77.5769 19.7081 78.3658 19.1427C78.9616 18.7157 78.9352 18.9403 78.9352 14.2861C78.9352 9.73515 78.9566 9.95132 78.4654 9.51545C78.0598 9.15547 77.584 9.05712 77.0978 9.23275ZM67.3107 10.5368C69.0924 10.8762 70.2416 12.8807 69.7495 14.7908C69.4073 16.1193 68.2492 17.099 66.9299 17.1763C65.9181 17.2355 64.9353 16.8385 64.3118 16.1189C63.8936 15.6362 63.8637 15.4911 63.8637 13.9482V12.5492L64.1602 12.1005C64.6952 11.2908 65.5041 10.6966 66.2813 10.5425C66.7376 10.4521 66.8626 10.4515 67.3107 10.5368Z" fill="currentColor"/>
<path d="M77.4775 8.23835C78.274 8.23835 78.9198 7.58993 78.9198 6.79007C78.9198 5.99021 78.274 5.3418 77.4775 5.3418C76.6809 5.3418 76.0352 5.99021 76.0352 6.79007C76.0352 7.58993 76.6809 8.23835 77.4775 8.23835Z" fill="currentColor"/>
</svg>
